<svg width="85" height="106" viewBox="0 0 85 106" fill="none" xmlns="http://www.w3.org/2000/svg">
<g clip-path="url(#clip0_1_635)">
<path d="M83.1805 3.83568C82.5431 3.74559 81.8987 4.01111 81.3277 4.13676C81.1366 4.17785 81.0213 4.10278 80.9818 3.91154C80.9013 3.02489 80.7876 2.02681 80.5672 1.13305C80.4346 0.772698 80.2332 0.414718 79.8517 0.153938C79.5437 -0.173223 78.9348 0.0567379 78.8496 0.481098C78.8353 0.97658 78.7121 1.50288 78.6624 1.96517C78.6079 2.63609 78.5202 3.20269 78.397 3.80249C78.3165 4.15336 78.2383 4.2956 77.8166 4.21025C76.9352 4.07749 76.08 4.19603 75.2318 4.16995C74.8764 4.16047 74.7295 4.36909 74.8622 4.65832C74.9522 5.26286 75.0351 6.00964 75.9568 6.10921C76.0965 6.11158 76.2008 6.22063 76.3382 6.36762C76.7931 6.55964 77.1437 6.71137 77.5654 6.86547C78.1246 7.09543 78.0535 7.16418 77.7242 7.47237C77.3593 7.81613 77.03 8.19782 76.6959 8.64826C76.4401 8.89007 76.4164 9.74116 76.6225 9.95927C76.8642 10.2153 77.1508 10.1537 77.473 9.98535C78.1554 9.68663 78.7287 9.41874 79.276 8.97305C79.6006 8.80472 79.7404 8.80946 79.9086 9.13425C80.0768 9.45904 80.2095 9.81702 80.3777 10.1418C80.7781 10.9336 81.4391 11.4149 82.2565 11.3295C82.5763 11.3035 82.7208 11.2371 83.0762 11.1755C83.6827 10.9455 83.614 10.872 83.5643 10.2343C83.4885 9.20063 82.8346 8.51075 82.3607 7.78531C82.1925 7.46052 82.2636 7.39177 82.4816 7.25664C83.1971 6.99349 83.813 6.62128 84.5641 6.39369C84.9574 6.29886 84.9976 6.12343 85.0048 5.83894C85.0308 4.98785 84.0665 3.96607 83.1852 3.83331L83.1805 3.83568Z" fill="#EFC80C"/>
<path d="M15.7623 13.3639C15.1653 12.0268 14.0138 11.1544 12.8269 10.4598C12.1114 10.0639 11.2869 9.74144 10.5145 9.44747C9.2091 9.08949 7.97474 8.84056 6.46082 9.10371C6.16941 9.14165 6.00593 9.01837 5.76664 9.08949C4.89951 9.33605 3.97078 9.51859 3.08944 9.85523L6.0391 14.0633C6.03436 13.857 6.03673 13.6484 6.06516 13.4327C6.06042 12.9609 6.49636 12.8352 6.83752 12.8234C8.13348 12.8424 9.4247 12.8566 10.6591 13.1055C11.3722 13.2003 12.2014 13.3947 12.5141 14.3359C12.879 15.3079 12.9193 15.9006 12.2393 16.5241C12.0166 16.8015 11.8081 17.1215 11.5878 17.3989C10.941 18.0745 10.3819 18.781 9.84168 19.4875L12.2985 22.9985C13.0235 21.9886 13.6987 20.9526 14.4214 19.9427C15.215 18.8095 15.7149 17.5506 15.9779 16.2254C16.1769 15.2629 16.1698 14.1889 15.7576 13.3639H15.7623ZM7.85391 21.9673C7.69755 22.1403 7.53881 22.311 7.3706 22.4794C7.29004 22.5031 7.29715 22.6714 7.29715 22.6714C6.99626 22.9725 6.99626 23.5746 6.46082 23.513C6.32104 23.468 6.33525 22.7757 6.32578 22.4343C6.29971 21.5382 6.29971 20.6468 6.30682 19.7578L3.26002 15.4099C3.16525 17.2211 3.04679 20.0968 3.06338 21.2584C2.94729 24.0037 3.13445 33.0694 3.51116 34.3804C3.65805 34.8972 3.91392 35.3406 4.21007 35.7697C4.58915 36.3481 5.4776 36.7417 5.71452 36.0707C5.90406 35.6725 6.49636 34.8996 6.52953 34.416C6.67642 33.1287 6.59113 31.4739 6.55559 30.151C6.5319 29.4706 6.41817 28.7713 6.45845 28.1596C6.47267 27.7661 6.52953 27.3631 7.05312 27.0857C8.01976 26.4503 8.97218 25.6395 9.97672 24.9994L7.85391 21.9673ZM0.272454 11.1473C-0.355386 11.676 0.286669 12.1667 0.34353 12.3635C0.784203 13.2596 1.48549 13.6152 2.06831 13.71L0.270085 11.1473H0.272454Z" fill="white"/>
<path d="M15.4115 32.7543C15.4044 32.797 15.3973 32.8421 15.3878 32.8847C15.1675 35.2721 15.0277 37.6357 14.8784 39.959C15.3262 40.4758 15.1698 41.4241 16.0583 41.6825C16.4468 41.8295 16.9728 41.7228 17.16 41.3245C17.2571 40.9096 17.2737 40.5161 17.4206 40.1297C17.6788 38.9965 17.956 37.8799 18.219 36.7609L15.4115 32.7543ZM29.3993 32.5671C28.8638 31 29.1339 29.2433 28.7027 27.7331C28.2005 25.9859 28.0536 24.2648 27.5513 22.5128C27.0182 20.9457 27.1414 19.2768 26.4875 17.7429C26.1464 16.8491 26.0421 15.8914 25.791 15.0166C25.5517 14.1821 24.6775 13.5301 23.8672 13.5467C23.4644 13.4898 22.9882 13.6273 22.6305 13.4305C22.05 13.2077 21.7373 13.4708 21.5217 13.9213C20.8583 15.0569 20.2068 16.2327 19.7471 17.4821C18.6952 20.1065 17.7428 22.7902 16.8828 25.4904C16.5748 26.4292 16.2976 27.4036 16.0772 28.3875L19.9059 33.8544C20.2305 33.7975 20.5219 33.724 20.8393 33.6054C22.0097 33.1834 23.1943 32.6714 24.3529 32.2091C24.6301 32.1308 24.8291 32.0716 25.13 32.0716C25.2105 32.0479 25.284 32.1593 25.3882 32.5149C25.6607 33.4679 26.0208 34.8714 26.3383 35.9833C26.76 37.4555 27.4234 38.7262 29.2405 38.7665C29.7499 38.7475 30.0508 38.7475 30.0366 38.2355C30.0176 36.8225 29.9703 34.2526 29.4017 32.5671H29.3993ZM24.3102 29.5088C23.879 29.5041 23.5189 29.606 23.0782 29.5633C22.3059 29.5681 21.5146 29.9664 20.7612 30.1821C20.5621 30.239 20.3773 30.3362 20.1262 30.3646C19.9035 30.3409 19.7614 30.2959 19.849 29.8407C20.1807 28.4538 20.4769 27.0788 20.8204 25.7322C21.3369 23.4777 21.9695 21.491 22.6447 19.4901C22.711 19.4261 22.7679 19.3242 22.865 19.2104C22.91 19.3716 23.0024 19.3858 23.0474 19.547C23.4407 21.9723 23.9004 24.3359 24.296 26.7588C24.386 27.3775 24.6703 28.0722 24.8551 28.7075C24.9902 29.184 24.9215 29.5491 24.3102 29.5088Z" fill="white"/>
<path d="M76.5275 26.9435C75.1534 26.3484 73.8432 27.0241 72.6681 27.5765C71.7607 28.0103 71.756 27.8396 70.9267 28.2498C69.6166 28.9254 68.2353 29.364 66.8114 29.9472C66.4371 30.1392 66.3565 30.1606 66.3352 29.7813C66.2547 29.5039 66.231 29.1222 66.231 28.8211C66.0604 27.3204 66.2191 25.77 66.3589 24.312C66.3186 24.0204 66.456 23.8971 66.7332 23.8165C67.1123 23.7928 70.6258 21.4956 70.704 21.4718C71.5214 21.0238 72.2322 20.3458 73.0282 19.6867C73.6703 19.075 73.6632 18.3022 73.5613 17.6431C73.4689 17.0244 72.796 17.2164 72.2748 17.4961C72.1966 17.5198 71.0713 17.7972 69.7706 18.2121C68.7992 18.5772 67.8136 19.03 67.0341 19.1699C66.8351 19.2291 66.7332 19.1699 66.7569 18.9494C66.7948 18.3354 66.6148 17.0955 66.4916 15.6256C66.4774 15.4146 70.3273 13.7077 71.4077 12.667C71.9005 12.1383 72.4786 11.4579 73.2106 11.1616C73.3718 11.1165 73.4547 10.9624 73.5708 10.7562C73.9735 10.2133 73.8361 9.73674 73.2154 9.52338C72.8813 9.40721 72.5023 9.42855 72.1184 9.45226C71.6091 9.47122 71.0523 9.62769 70.5524 9.68696C69.382 9.80787 68.2258 10.2678 67.136 10.6661C66.2168 11.0596 63.5822 12.373 62.6843 12.8448C62.272 13.0487 61.9072 13.281 61.6063 13.5844C61.1324 14.0206 60.9737 15.5711 61.3859 15.9694C61.8006 16.3677 63.2955 15.7252 63.0396 16.1828C62.9117 16.3487 62.8643 16.6213 62.7719 18.4089C62.7577 19.1035 62.6132 19.3572 62.5587 20.0613C62.5658 20.232 61.8621 20.4761 61.566 21.249C61.4025 21.7255 61.7887 22.477 61.9593 23.0721C62.0849 23.5083 62.381 23.6387 62.3644 24.0322C62.3241 24.945 62.3407 25.4594 62.3431 26.3603C62.4 27.7638 62.5208 29.8358 62.6298 30.6655C62.6535 31.0449 63.0349 31.3246 62.9354 31.7371C62.8596 32.0619 62.3123 32.5621 62.2389 32.7541C62.0754 33.2307 62.4165 34.4255 63.6083 34.9874C64.7407 35.4805 65.3141 36.1324 66.4868 35.5824C67.1573 35.2173 67.8326 35.0229 68.4722 34.7124C69.2636 34.3117 71.294 33.2994 71.9739 32.6735C73.3007 31.3033 73.9783 31.1089 75.5064 29.8547C76.1579 29.281 76.8569 28.8662 77.0156 27.9155C77.1909 27.1782 77.1127 27.1995 76.5204 26.9387L76.5275 26.9435Z" fill="white"/>
<path d="M23.4641 52.2368C22.9761 50.6887 21.917 49.3943 20.8082 48.2705C20.1401 47.6115 19.3607 46.9904 18.6262 46.4119C17.3776 45.5798 16.193 44.878 14.6957 44.5888C14.409 44.5201 14.2598 44.3351 14.0205 44.3185C13.151 44.2474 12.2222 44.0862 11.3291 44.1028C11.0519 44.0791 9.20861 44.0175 8.52628 44.3517C7.84158 44.6433 8.4481 45.3806 8.48838 45.5987C9.08778 47.3317 10.4761 47.8746 10.9358 47.8225C11.2935 47.8509 11.3338 48.0714 11.303 48.3274C11.1585 49.2236 10.5922 53.8821 10.4998 55.4704C10.1871 58.1636 9.71326 67.2743 9.98571 68.7204C10.0923 69.2894 10.3103 69.8252 10.5662 70.3634C10.8955 71.0817 11.7318 71.7953 12.0114 71.2121C12.2222 70.8849 12.8596 70.3325 12.9283 69.8631C13.1652 68.6304 13.2007 66.9495 13.2623 65.6172C13.2884 64.9273 13.2268 64.1924 13.3097 63.5926C13.3547 63.2085 13.44 62.8268 13.9683 62.7415C15.044 62.438 16.1172 61.9212 17.2402 61.6652C17.9747 61.4233 18.7494 61.1839 19.3464 60.6268C20.1425 59.8681 20.8888 59.0692 21.6825 58.3106C22.5401 57.4737 23.1182 56.3974 23.4712 55.1765C23.7342 54.2922 23.8053 53.2183 23.4665 52.2391L23.4641 52.2368ZM19.799 54.1025C19.562 54.2993 19.3346 54.5388 19.0977 54.7355C17.4274 55.8095 16.257 57.2722 14.6104 58.2608C14.5322 58.2537 14.5227 58.4244 14.5227 58.4244C14.2076 58.6164 14.165 59.2186 13.6485 58.9602C13.5135 58.863 13.5798 58.1778 13.5916 57.8317C13.6675 56.1556 13.8286 54.5293 13.9541 52.8982C14.0015 52.1254 13.9423 51.3881 13.9067 50.563C13.9494 49.9632 13.8736 49.3516 13.9968 48.7565C14.0252 48.2848 14.4611 48.3203 14.7952 48.4318C16.058 48.9225 17.3184 49.4109 18.5054 50.1102C19.1972 50.4706 19.9885 50.9637 20.2278 52.0187C20.5097 53.1211 20.5074 53.7256 19.799 54.1002V54.1025Z" fill="white"/>
<path d="M41.2123 72.2222C41.172 71.4636 41.1128 70.3873 40.9801 69.2588L35.2822 61.1272C34.8746 60.985 34.5382 60.966 34.1165 60.7716C33.3702 60.518 32.6263 60.6697 31.9037 60.6412C31.7141 60.6341 31.5364 60.6721 31.2971 60.6175C31.0839 60.518 30.9418 60.4231 31.0057 59.9751C31.264 58.664 31.4843 57.3554 31.752 56.0847L28.7313 51.7747C28.4612 52.6448 28.2006 53.5219 27.9518 54.4038C27.587 55.6509 27.2837 56.9903 27.1084 58.3819C26.9094 59.4108 26.9733 60.5867 26.8217 61.6606C26.7127 64.0883 26.6772 66.523 26.6274 68.908C27.0847 69.6026 26.971 70.5438 27.8428 71.1175C28.2219 71.4043 28.7289 71.4684 28.8924 71.1151C28.9682 70.7121 28.9658 70.3067 29.0938 69.9511C29.4207 68.1612 29.7974 66.4187 30.0865 64.6264C30.1244 64.0883 30.3897 64.0978 30.7688 64.1144C31.2853 64.2234 31.6786 64.2827 32.1193 64.2566C33.2328 64.2092 34.3582 64.0741 35.4598 63.9816C35.7252 63.9911 35.9147 63.9958 36.2038 64.0978C36.2796 64.1001 36.3578 64.24 36.4691 64.6478C36.7747 65.743 37.1823 67.3338 37.5376 68.6093C38.0067 70.2948 38.7057 71.8548 40.4612 72.5091C40.9564 72.6632 41.2454 72.7651 41.2075 72.2199L41.2123 72.2222ZM39.478 60.755C38.9189 58.7518 38.7009 56.8955 38.1418 54.8898C37.559 53.0668 37.6063 51.3551 36.9098 49.5249C36.5402 48.4747 36.4004 47.4339 36.1232 46.4311C35.8555 45.4733 34.9813 44.4942 34.1994 44.2382C33.8061 44.0438 33.3536 44.0272 32.9982 43.6976C32.4273 43.2685 32.1358 43.4369 31.9487 43.8351C31.354 44.8048 30.7759 45.8171 30.3826 46.974C30.2334 47.3723 30.0841 47.7729 29.9396 48.1783L32.6808 52.0924C32.8703 51.4072 33.0693 50.7363 33.2731 50.0607C33.337 50.0204 33.3844 49.9303 33.4744 49.8449C33.5266 50.0275 33.6142 50.0749 33.6664 50.2574C33.9341 51.7463 34.2231 53.2232 34.5098 54.7002L39.7552 62.1917C39.6936 61.7128 39.6131 61.2315 39.4804 60.755H39.478Z" fill="white"/>
<path d="M61.8335 62.0493C61.4592 61.3405 61.4971 60.7264 61.1393 60.2262C60.0708 58.5952 58.1849 57.4169 56.9174 56.746C56.3725 56.3453 55.7991 55.9945 55.3206 55.5274C54.7235 55.096 54.714 54.7569 55.0291 54.0623C55.1429 53.8584 55.1595 53.766 55.285 53.6C56.119 52.1563 56.8913 50.6461 57.531 49.1288C58.012 47.9577 58.3697 46.6514 58.3058 45.3783C58.2868 44.5676 58.1044 43.6287 57.332 43.0337C57.0548 42.8108 56.6971 42.6117 56.318 42.3343C55.5456 42.0404 54.8112 41.7345 54.098 41.6373C52.904 41.3766 51.7359 41.1964 50.5087 41.1158C48.7602 41.0162 46.8649 41.002 45.1543 41.4903C44.7184 41.616 44.2421 41.7511 43.8441 41.8649C42.9983 42.0641 42.4416 42.5264 42.0577 43.2802C41.6834 44.0768 42.098 44.7762 42.3018 45.4898C42.3136 45.5301 42.496 45.5633 42.5979 45.6202C43.5859 46.0682 44.6236 46.246 45.749 45.9639C46.0664 45.8722 46.2354 46.0105 46.256 46.3788C46.211 47.1208 46.2275 47.934 46.3152 48.6855C46.3673 49.9183 46.4526 51.2696 46.4242 52.5237C46.4005 53.9509 46.3389 55.3852 46.3294 56.8527C46.2868 58.5003 46.2702 60.0958 46.3057 61.7198C46.3057 62.3219 46.1636 62.8791 46.2418 63.4575C46.3863 64.1047 46.5545 64.7022 46.8009 65.4063C46.9004 66.4992 47.5188 67.31 48.746 67.3882C49.381 67.5044 49.4212 67.4949 49.6179 66.8358C49.715 66.4233 49.7932 66.0985 49.8998 65.7239C50.1107 64.8041 50.2102 63.9554 50.331 63.0189C50.4471 62.0801 50.2623 61.2741 50.1817 60.3945C49.9377 58.7872 50.0041 57.2178 49.8382 55.5891C49.7648 54.2781 49.5468 52.9196 49.471 51.6062C49.3122 49.8472 49.2696 48.0525 48.9687 46.2437C48.9332 45.8264 48.9971 45.5917 49.4449 45.5064C49.7221 45.4281 50.0467 45.5064 50.3239 45.4281C51.4706 45.2266 52.6291 45.0678 53.8137 45.1579C54.3989 45.248 54.932 45.312 55.4272 45.6865C55.5812 45.7719 55.7399 46.0256 55.7849 46.1844C55.8086 46.8648 55.6996 47.5452 55.3845 48.2351C54.9249 49.1834 54.1715 50.0036 53.5981 50.8547C52.667 52.1112 52.0321 53.4981 51.6933 55.0154C51.5346 55.9636 51.8639 56.8171 52.1671 57.7204C52.3022 58.1969 52.5746 58.5501 52.9229 59.0077C53.6574 59.9156 54.7069 60.4301 55.7754 60.8568C56.6497 61.2077 57.5523 61.5088 58.3982 61.9094C58.9597 62.2224 59.5496 62.4831 60.1656 62.5211C60.9214 62.6088 62.1794 62.8032 61.8335 62.0446V62.0493Z" fill="white"/>
<path d="M18.8355 75.1784C18.7928 75.0077 18.5227 74.7161 18.3427 74.6403C17.5514 74.4743 16.7387 74.223 15.983 74.1851C14.905 74.1282 13.8364 74.114 12.7585 74.0571C11.671 73.9551 10.5077 74.0357 9.33496 74.0713C8.48441 74.1329 7.66941 74.1875 6.78095 74.2491C6.23841 74.287 3.6844 74.7754 3.17502 74.9437C2.40029 75.3064 1.29861 76.397 1.38627 77.0537C1.61845 77.964 3.05656 79.2774 3.97818 79.3462C4.46624 79.4007 6.94206 79.2253 7.43012 79.2822C7.78787 79.3011 7.86605 79.294 7.77128 79.697C7.6315 80.5458 7.59359 81.4751 7.64808 82.3119C7.74522 84.2488 7.85894 86.0932 8.02242 87.9803C8.06506 89.0804 8.23565 90.2159 8.33042 91.3586C8.40149 93.03 8.48441 94.7464 8.70712 96.4059C8.76398 96.9346 8.70238 97.468 8.85401 98.0749C8.98669 98.9047 9.16674 99.7747 9.65006 100.581C9.97701 101.088 10.3419 101.283 10.8655 101.337C11.3535 101.392 11.716 101.275 11.7729 100.567C11.8108 99.9478 11.9292 99.3195 11.9671 98.6984C12.1069 96.3064 12.1993 93.8716 12.2609 91.4819C12.3012 90.2444 12.4813 89.0851 12.3628 87.8547C12.1899 85.3085 12.1804 82.7932 11.6994 80.1332C11.6236 79.5216 11.7184 79.4268 12.2372 79.3011C12.8461 79.2134 13.4432 79.0854 14.0023 78.9574C14.7818 78.7701 15.4902 78.4571 16.2341 78.2746C16.9638 78.0446 17.7291 77.9474 18.4351 77.6345C18.7336 77.5705 19.0819 77.2362 19.0629 76.8403C19.1245 76.3045 18.9682 75.6976 18.8355 75.176V75.1784Z" fill="white"/>
<path d="M31.9416 85.0951C31.88 84.1231 31.527 83.1914 31.1455 82.3119C30.7475 81.5201 30.231 80.7662 29.3828 80.3632C28.3096 79.7681 26.9354 79.7776 25.7272 79.6045C25.4642 79.5951 25.187 79.6733 25.0117 79.8108C23.9502 80.458 22.9647 81.2143 22.1639 82.1744C21.844 82.5679 21.5905 82.7244 21.0954 82.6509C20.3183 82.4873 20.0624 82.6462 19.7236 83.2602C19.1265 84.3341 18.6361 85.465 18.2926 86.6812C18.0675 87.39 17.8922 88.1297 17.7951 88.8433C17.5913 89.9362 17.4112 91.1049 17.3496 92.2405C17.2549 93.5586 17.0961 94.8056 17.3591 96.0242C17.0535 96.4557 17.4799 96.8943 17.4326 97.3352C17.506 97.7453 17.4965 98.3072 17.5297 98.7292C17.8093 99.8553 18.2689 101.012 18.7356 102.041C19.4985 103.499 20.3893 104.663 21.9957 105.322C22.4742 105.486 22.9907 105.638 23.4669 105.803C24.4833 106.199 25.5305 105.943 26.464 105.46C28.0585 104.573 29.1862 103.26 29.8448 101.65C30.4798 100.265 30.9205 98.8027 31.2308 97.34C31.5554 95.9151 31.9274 94.5164 32.0292 93.0679C32.188 91.5174 32.2164 89.9599 32.2117 88.4568C32.2733 87.3213 31.9961 86.1975 31.9368 85.0951H31.9416ZM28.1082 95.2703C27.5657 97.2759 26.9094 101.294 25.1159 102.84C24.9809 102.966 24.9074 103.16 24.6681 103.224C24.1445 103.504 23.7157 103.499 23.4503 103.018C23.0618 102.57 22.8652 102.022 22.5216 101.434C22.4197 101.074 22.1876 100.711 22.1236 100.341C22.1378 99.0445 21.8867 95.7634 21.8511 94.4382C21.8843 92.4515 22.2136 90.5929 22.3866 88.6489C22.5287 87.7907 22.5903 86.9585 22.9812 86.0695C23.1637 85.8016 23.0618 85.4436 23.2039 85.19C23.3248 84.8533 23.8626 84.1824 24.1398 83.502C24.4786 82.888 24.5425 82.3546 24.9003 82.2526C25.2983 82.1388 26.1323 81.9018 27.1605 83.5399C27.8523 84.7585 28.2243 86.8044 28.492 88.1913C28.5702 88.4687 28.5039 88.8338 28.5039 89.1349C28.6081 91.297 28.5631 93.2481 28.1106 95.2703H28.1082Z" fill="white"/>
<path d="M50.3932 74.1684C50.3671 73.7891 50.3126 73.59 50.3339 73.3671C50.2889 72.9072 50.3481 72.3714 49.8577 72.2979C49.4834 72.1912 49.0238 72.2363 48.6234 72.3524C48.4267 72.4093 48.2277 72.7673 48.0476 73.0328C47.9695 73.2557 47.9008 73.5094 47.851 73.7464L50.4358 77.4377C50.4382 76.7193 50.4405 75.9939 50.4477 75.2684C50.3955 74.9389 50.3955 74.6378 50.3908 74.1661L50.3932 74.1684ZM47.0621 77.9355C46.7659 79.3651 46.4721 80.7875 46.2944 82.2265C46.1191 83.566 45.8443 84.8509 45.6855 86.0979C45.3847 88.2079 45.3633 90.2348 44.6597 92.2855C44.3446 93.2812 43.9679 94.3741 43.5888 95.3035C43.314 95.9839 43.0794 95.9199 42.5416 95.3888C41.4447 94.4121 41.447 93.0774 41.2954 91.79C41.1912 90.8275 41.2314 89.9148 41.1675 88.9428C41.0917 87.6318 41.0182 86.3184 40.9306 84.9695C40.8571 83.6561 40.715 82.4067 40.6391 81.0957C40.5515 80.3465 40.5752 79.5215 40.5017 78.8127C40.4757 78.1299 40.3596 77.5633 40.189 76.9659C40.0871 76.6079 39.8075 76.3874 39.4261 76.4088C38.8077 76.5012 38.1609 76.6435 37.9359 77.3523C37.8577 77.6771 37.7274 77.9711 37.6255 78.2176C37.4265 79.7799 37.2583 81.2901 37.2417 82.8856C37.2441 84.9955 37.2227 87.0225 37.5829 89.0258C37.661 89.6042 37.9027 90.14 37.8601 90.7517C37.8079 91.3254 38.0899 91.8493 38.1681 92.4278C38.2889 92.9967 38.3908 93.6558 38.5495 94.2106C38.6514 94.5709 38.9617 94.9099 38.9854 95.2892C39.2603 96.2423 39.7365 97.0104 40.1535 97.7098C41.3925 99.6324 43.2761 100.211 45.3776 100.038C46.1381 99.9928 47.0123 99.7415 47.4198 99.0658C48.0026 98.2527 48.5831 97.2688 48.9006 96.2755C49.2346 95.1897 49.4384 94.0991 49.6706 92.9564C50.0093 90.5359 50.2297 88.151 50.2534 85.6902C50.296 84.6802 50.3102 83.6371 50.3339 82.6058L47.0597 77.9331L47.0621 77.9355Z" fill="white"/>
<path d="M60.8627 97.6411C60.8935 97.8995 60.9267 98.1555 60.9646 98.4092C61.0214 98.9118 60.9598 99.4452 61.1186 100C61.256 100.778 61.4455 101.584 61.9359 102.259C62.2724 102.681 62.6467 102.788 63.1845 102.719C63.5754 102.677 63.8858 102.548 64.0303 102.162L60.8603 97.6387L60.8627 97.6411ZM71.3227 75.4345C71.2777 75.2756 70.9982 75.0552 70.8181 75.022C70.0078 75.0409 69.1715 74.9793 68.3944 75.1144C67.288 75.3041 66.191 75.5317 65.0846 75.7213C63.9687 75.8683 62.7746 76.2121 61.5711 76.5132C60.6968 76.7621 59.8629 77.0039 58.9484 77.2647C58.3916 77.4235 55.7713 78.4761 55.25 78.7535C54.4564 79.2845 53.3286 80.5956 53.4186 81.2143C53.6556 82.0488 55.134 83.0018 56.0793 82.8596C56.5792 82.8003 59.1237 82.0749 59.6236 82.0156C59.9908 81.954 60.069 81.9303 59.9742 82.3451C59.8321 83.2057 59.7942 84.1185 59.851 84.9198C59.9529 86.7855 60.0737 88.5541 60.2467 90.3558C60.2657 90.7636 60.3012 91.1737 60.3438 91.5886L64.4402 97.4325C64.5113 95.8844 64.5634 94.3339 64.6013 92.8072C64.6416 91.591 64.824 90.4199 64.7008 89.2511C64.5184 86.8069 64.5042 84.3603 64.009 81.8781C63.9308 81.2973 64.0232 81.1835 64.5587 80.944C65.1841 80.7212 65.7954 80.4628 66.3687 80.2091C67.1695 79.8511 67.8921 79.3841 68.655 79.038C69.4013 78.6492 70.1879 78.3813 70.9129 77.919C71.2185 77.7862 71.5762 77.3832 71.5526 77.0039C71.6142 76.4705 71.4554 75.911 71.318 75.4345H71.3227Z" fill="white"/>
<path d="M58.5668 22.1048C58.0503 21.3486 57.3561 20.7298 56.6288 20.2936C55.5105 19.5373 54.3567 18.966 53.274 18.333C52.0349 17.6099 50.746 16.8608 49.5757 16.0808C49.2179 15.8817 48.8815 15.462 48.5995 15.0709C48.2418 14.5707 48.3081 14.5066 48.628 14.1178C48.9976 13.7528 49.3364 13.4398 49.6373 13.1387C50.675 12.1098 51.6274 10.934 52.7575 9.92166C53.5725 9.17251 54.2027 8.21473 54.6671 7.13605C54.7216 6.86342 54.7879 6.80178 54.5083 6.57893C54.025 6.24466 53.473 5.97202 53.0608 5.57374C52.459 4.97395 51.8998 5.13279 51.2886 5.39357C50.9924 5.56426 50.6371 5.66857 50.3907 5.86771C48.7607 7.23799 47.0904 8.44943 45.9223 10.3745C45.2471 11.4721 44.6761 12.6243 44.5743 14.0728C44.5316 15.4194 44.7899 16.6332 45.5433 17.7545C46.5762 19.2623 47.9125 20.4738 49.2961 21.4102C50.149 21.9816 51.0161 22.4628 51.9591 23.0555C52.1131 23.1408 52.3145 23.385 52.5277 23.5367C52.6296 23.5936 52.6746 23.7501 52.6059 23.8141C52.3855 24.3926 52.215 24.9995 51.9141 25.6017C51.4781 26.6306 50.964 27.6832 50.4072 28.7452C50.3433 28.9776 50.1798 29.153 49.9713 29.4731C49.3648 30.8101 48.7346 32.0643 48.2987 33.3942C48.1328 33.8708 48.038 34.5891 48.1968 35.1438C48.2892 35.7626 48.8294 36.296 49.4311 36.5971C49.7605 36.846 49.9808 36.8674 50.2035 36.59C50.8195 35.8954 51.5326 35.2197 52.0467 34.4705C52.7646 33.5341 53.5156 32.5455 54.2359 31.6067C54.8069 30.7556 55.4489 29.8381 55.9986 28.9088C56.489 28.2095 56.9178 27.3109 57.3538 26.5855C58.1309 25.5448 58.5905 24.2954 58.7018 22.8872C58.78 22.5624 58.7232 22.3632 58.5644 22.1096L58.5668 22.1048ZM45.1287 28.0696C44.4487 27.4911 43.7545 26.87 43.039 26.4741C40.9944 25.3385 38.791 24.5514 36.5711 23.8544C36.1731 23.6648 35.6684 23.5533 35.2206 23.3376C34.7989 23.0721 34.5833 22.3182 34.8226 21.9484C36.0309 20.6113 37.2274 19.2362 38.3551 17.9229C39.3691 16.8157 40.0041 15.4289 40.6793 14.0301C40.684 13.8997 40.9044 13.6224 40.6035 13.3213C40.0894 12.8661 39.6321 12.482 39.1275 12.0672C38.3788 11.5527 37.867 11.5693 37.225 12.181C36.6682 12.6433 36.192 13.0818 35.6589 13.62C34.1047 15.4004 32.6358 17.3254 31.899 19.8597C31.3399 21.9555 31.2617 24.0868 32.7567 25.853C33.6499 27.0194 34.8131 27.631 36.0451 28.1786C37.2392 28.7429 38.5565 29.1388 39.8051 29.5963C39.959 29.6817 40.1628 29.7955 40.3144 29.8784C40.5182 29.9922 38.9261 32.0832 38.1656 32.7328C36.8033 33.9822 36.4195 35.6417 35.1259 36.8294C34.4175 37.5051 33.8204 38.2779 33.3608 39.2262C33.0031 39.9327 34.0171 41.3623 34.6828 40.9995C35.0714 40.8431 35.4599 40.561 35.8248 40.3286C37.3103 39.5155 38.2058 38.7426 39.3573 37.5075C40.4353 36.4667 41.1223 36.0115 41.961 35.0395C43.2096 33.3919 44.7662 32.2136 45.4153 30.1345C45.6925 29.4541 45.5172 28.3849 45.1239 28.0672L45.1287 28.0696Z" fill="white"/>
</g>
<defs>
<clipPath id="clip0_1_635">
<rect width="85" height="106" fill="white"/>
</clipPath>
</defs>
</svg>
