<svg width="32" height="32" viewBox="0 0 32 32" fill="none" xmlns="http://www.w3.org/2000/svg">
<g id="material-symbols:contact-support-outline">
<path id="Vector" d="M12 29.3334L11.6667 25.3334H11.3333C8.17778 25.3334 5.5 24.2334 3.3 22.0334C1.1 19.8334 0 17.1556 0 14.0001C0 10.8445 1.1 8.16675 3.3 5.96675C5.5 3.76675 8.17778 2.66675 11.3333 2.66675C12.9111 2.66675 14.3831 2.96097 15.7493 3.54941C17.1164 4.13875 18.3169 4.94986 19.3507 5.98275C20.3836 7.01653 21.1942 8.21653 21.7827 9.58275C22.372 10.9499 22.6667 12.4223 22.6667 14.0001C22.6667 15.6667 22.3947 17.2667 21.8507 18.8001C21.3058 20.3334 20.5613 21.7556 19.6173 23.0667C18.6724 24.3779 17.5502 25.5667 16.2507 26.6334C14.9502 27.7001 13.5333 28.6001 12 29.3334ZM14.6667 24.4667C16.2444 23.1334 17.5276 21.5725 18.516 19.7841C19.5053 17.9947 20 16.0667 20 14.0001C20 11.5779 19.1613 9.52764 17.484 7.84941C15.8058 6.17208 13.7556 5.33341 11.3333 5.33341C8.91111 5.33341 6.86133 6.17208 5.184 7.84941C3.50578 9.52764 2.66667 11.5779 2.66667 14.0001C2.66667 16.4223 3.50578 18.4725 5.184 20.1507C6.86133 21.8281 8.91111 22.6667 11.3333 22.6667H14.6667V24.4667ZM11.3 21.3001C11.6778 21.3001 12 21.1667 12.2667 20.9001C12.5333 20.6334 12.6667 20.3112 12.6667 19.9334C12.6667 19.5556 12.5333 19.2334 12.2667 18.9667C12 18.7001 11.6778 18.5667 11.3 18.5667C10.9222 18.5667 10.6 18.7001 10.3333 18.9667C10.0667 19.2334 9.93333 19.5556 9.93333 19.9334C9.93333 20.3112 10.0667 20.6334 10.3333 20.9001C10.6 21.1667 10.9222 21.3001 11.3 21.3001ZM10.3333 17.0667H12.3333C12.3333 16.4001 12.4 15.9334 12.5333 15.6667C12.6667 15.4001 13.0889 14.9112 13.8 14.2001C14.2 13.8001 14.5333 13.3667 14.8 12.9001C15.0667 12.4334 15.2 11.9334 15.2 11.4001C15.2 10.2667 14.8169 9.41653 14.0507 8.84941C13.2836 8.28319 12.3778 8.00008 11.3333 8.00008C10.3556 8.00008 9.53333 8.27208 8.86667 8.81608C8.2 9.36097 7.73333 10.0223 7.46667 10.8001L9.33333 11.5334C9.44444 11.1556 9.65556 10.7832 9.96667 10.4161C10.2778 10.0499 10.7333 9.86675 11.3333 9.86675C11.9333 9.86675 12.3836 10.0334 12.684 10.3667C12.9836 10.7001 13.1333 11.0667 13.1333 11.4667C13.1333 11.8445 13.0222 12.1832 12.8 12.4827C12.5778 12.7832 12.3111 13.089 12 13.4001C11.2222 14.0667 10.7502 14.5943 10.584 14.9827C10.4169 15.3721 10.3333 16.0667 10.3333 17.0667Z" fill="white"/>
</g>
</svg>
