<svg width="13" height="13" viewBox="0 0 13 13" fill="none" xmlns="http://www.w3.org/2000/svg">
<path d="M6.50145 3.16696C4.65694 3.16696 3.16916 4.65508 3.16916 6.5C3.16916 8.34492 4.65694 9.83304 6.50145 9.83304C8.34596 9.83304 9.83374 8.34492 9.83374 6.5C9.83374 4.65508 8.34596 3.16696 6.50145 3.16696ZM6.50145 8.66691C5.30948 8.66691 4.33502 7.69514 4.33502 6.5C4.33502 5.30486 5.30658 4.33309 6.50145 4.33309C7.69632 4.33309 8.66787 5.30486 8.66787 6.5C8.66787 7.69514 7.69342 8.66691 6.50145 8.66691ZM10.7473 3.03063C10.7473 3.46285 10.3993 3.80804 9.97005 3.80804C9.53792 3.80804 9.1928 3.45995 9.1928 3.03063C9.1928 2.60131 9.54082 2.25321 9.97005 2.25321C10.3993 2.25321 10.7473 2.60131 10.7473 3.03063ZM12.9543 3.81965C12.905 2.77826 12.6672 1.8558 11.9045 1.09578C11.1446 0.335769 10.2224 0.0979025 9.1812 0.0456878C8.10814 -0.0152293 4.89186 -0.0152293 3.8188 0.0456878C2.78054 0.0950017 1.85828 0.332868 1.09554 1.09288C0.332794 1.8529 0.0978806 2.77535 0.0456776 3.81675C-0.0152259 4.89005 -0.0152259 8.10705 0.0456776 9.18035C0.0949805 10.2217 0.332794 11.1442 1.09554 11.9042C1.85828 12.6642 2.77764 12.9021 3.8188 12.9543C4.89186 13.0152 8.10814 13.0152 9.1812 12.9543C10.2224 12.905 11.1446 12.6671 11.9045 11.9042C12.6643 11.1442 12.9021 10.2217 12.9543 9.18035C13.0152 8.10705 13.0152 4.89295 12.9543 3.81965ZM11.568 10.332C11.3418 10.9005 10.9039 11.3386 10.3326 11.5677C9.47702 11.9071 7.4469 11.8288 6.50145 11.8288C5.55599 11.8288 3.52298 11.9042 2.67033 11.5677C2.1019 11.3415 1.66397 10.9034 1.43486 10.332C1.09554 9.47624 1.17384 7.44567 1.17384 6.5C1.17384 5.55433 1.09844 3.52086 1.43486 2.66802C1.66107 2.09946 2.099 1.66144 2.67033 1.43228C3.52588 1.09288 5.55599 1.1712 6.50145 1.1712C7.4469 1.1712 9.47992 1.09578 10.3326 1.43228C10.901 1.65854 11.3389 2.09656 11.568 2.66802C11.9074 3.52376 11.8291 5.55433 11.8291 6.5C11.8291 7.44567 11.9074 9.47914 11.568 10.332Z" fill="white"/>
</svg>
