<svg width="178" height="159" viewBox="0 0 178 159" fill="none" xmlns="http://www.w3.org/2000/svg">
<g opacity="0.28">
<path d="M10.7372 86.1858C28.8121 70.1048 51.146 60.0954 73.061 51.9442C83.8789 47.9216 95.0042 44.685 106.319 43.5747C117.634 42.4644 129.513 44.0392 140.446 47.6189C153.118 51.781 164.816 58.4051 175.806 65.8824C177.065 66.7319 175.342 69.9135 174.131 69.0881C155.306 56.2602 133.771 45.7038 110.158 46.6093C98.9698 47.0342 87.8602 49.872 77.1106 53.6031C66.1814 57.3919 55.37 61.9218 44.889 67.0377C33.0577 72.8362 21.6185 79.7391 11.576 88.6815C9.82381 90.2389 9.50007 87.2821 10.7315 86.1667L10.7372 86.1858Z" fill="#090000"/>
<path d="M15.8236 66.8272C15.445 71.6648 14.1317 76.2521 11.9621 80.6441C11.0259 82.5395 9.99239 84.3868 9.00751 86.2582C8.14455 87.9133 7.41113 89.5511 6.38446 91.1091C5.97652 91.7207 5.62291 92.3753 5.23358 92.9798C5.21421 93.019 5.17547 93.0974 5.14964 93.1497L5.07064 93.3709L5.06987 92.8826C5.28143 92.5156 4.7185 92.9205 5.35778 92.6671C6.77877 92.117 8.29815 91.8268 9.73851 91.2374C13.1841 89.8336 16.4055 88.0263 20.0292 87.1495C25.0378 85.9486 30.1958 85.9761 35.0222 87.2869C36.6229 87.7199 35.2662 91.0174 33.9222 90.6463C29.2911 89.3993 24.3565 89.2871 19.5583 90.4293C15.7306 91.3517 12.3208 93.326 8.65911 94.7695C6.70406 95.5437 1.34942 97.598 2.72546 93.2206C3.23782 91.5711 4.38871 90.2208 5.27788 88.7575C6.33987 87.0056 7.14888 85.0311 8.12009 83.2181C9.27133 81.0711 10.4533 78.9232 11.325 76.6382C12.4458 73.6957 13.0337 70.6689 13.2855 67.5573C13.4108 65.8955 16.0077 64.4952 15.8236 66.8272Z" fill="#090000"/>
</g>
</svg>
