<svg width="150" height="110" viewBox="0 0 150 110" fill="none" xmlns="http://www.w3.org/2000/svg">
<g opacity="0.28">
<path d="M8.88212 97.2637C17.2907 74.5791 32.3104 55.2555 47.8326 37.7692C55.4954 29.1384 63.7986 21.0573 73.2674 14.7645C82.7363 8.47177 93.9637 4.28505 105.298 2.31219C118.441 0.0372306 131.879 0.393453 145.093 1.83577C146.603 1.99476 146.576 5.61286 145.12 5.45224C122.475 2.9649 98.5052 3.7553 78.0816 15.6414C68.403 21.2696 59.9263 28.9912 52.187 37.3326C44.3162 45.8091 36.8973 54.8848 30.0454 64.3227C22.3217 74.9973 15.4627 86.4629 10.7945 99.0735C9.97865 101.271 8.30455 98.8125 8.86812 97.2496L8.88212 97.2637Z" fill="#090000"/>
<path d="M4.28436 77.7832C6.22147 82.2322 7.21566 86.8991 7.36222 91.7955C7.42547 93.9086 7.3803 96.0249 7.38934 98.1395C7.40452 100.006 7.52594 101.796 7.35096 103.654C7.27791 104.386 7.27305 105.13 7.21312 105.846C7.21442 105.89 7.21704 105.977 7.21879 106.036L7.25286 106.268L7.02296 105.837C7.03741 105.414 6.73049 106.036 7.17597 105.512C8.17229 104.359 9.37756 103.389 10.3726 102.193C12.7556 99.3354 14.7514 96.2272 17.5392 93.7517C21.3976 90.3398 25.9646 87.9423 30.8414 86.8337C32.458 86.4644 32.8083 90.0129 31.4475 90.3162C26.7731 91.3896 22.3635 93.6073 18.6633 96.8686C15.7168 99.4801 13.6332 102.824 11.0779 105.818C9.71521 107.419 5.95201 111.747 5.11168 107.236C4.78962 105.539 5.1718 103.807 5.26983 102.097C5.38494 100.052 5.17219 97.9288 5.17844 95.872C5.18691 93.4359 5.22203 90.9844 4.91881 88.5577C4.5269 85.4335 3.62484 82.485 2.38616 79.6195C1.71657 78.0934 3.35207 75.6378 4.28436 77.7832Z" fill="#090000"/>
</g>
</svg>
