<svg width="10" height="14" viewBox="0 0 10 14" fill="none" xmlns="http://www.w3.org/2000/svg">
<g id="&#240;&#159;&#166;&#134; icon &#34;Alternate Map Marker&#34;">
<path id="Vector" d="M4.1786 13.0496C0.654195 7.94022 0 7.41585 0 5.53809C0 2.96596 2.0851 0.880859 4.65723 0.880859C7.22935 0.880859 9.31445 2.96596 9.31445 5.53809C9.31445 7.41585 8.66026 7.94022 5.13585 13.0496C4.90457 13.3837 4.40986 13.3836 4.1786 13.0496ZM4.65723 7.4786C5.72895 7.4786 6.59774 6.60981 6.59774 5.53809C6.59774 4.46637 5.72895 3.59757 4.65723 3.59757C3.58551 3.59757 2.71672 4.46637 2.71672 5.53809C2.71672 6.60981 3.58551 7.4786 4.65723 7.4786Z" fill="white"/>
</g>
</svg>
