<svg width="164" height="132" viewBox="0 0 164 132" fill="none" xmlns="http://www.w3.org/2000/svg">
<g opacity="0.28">
<path d="M139.686 12.8616C135.177 36.6306 123.589 58.1878 111.199 78.0171C105.083 87.8046 98.2431 97.1569 89.9558 104.94C81.6685 112.724 71.2963 118.723 60.4495 122.558C47.8699 126.992 34.56 128.882 21.2911 129.662C19.7754 129.757 19.1992 126.185 20.6617 126.101C43.4036 124.778 66.9067 120.003 85.0628 104.878C93.6678 97.7153 100.738 88.6885 106.979 79.1736C113.326 69.5035 119.128 59.318 124.311 48.8699C130.147 37.057 134.998 24.6084 137.499 11.396C137.937 9.09305 139.998 11.2382 139.702 12.8732L139.686 12.8616Z" fill="#090000"/>
<path d="M147.467 31.3028C144.816 27.239 143.057 22.8032 142.096 17.9997C141.682 15.9268 141.374 13.8325 141.012 11.749C140.686 9.91109 140.268 8.16597 140.131 6.30516C140.081 5.57174 139.961 4.83733 139.901 4.12086C139.892 4.07797 139.875 3.9922 139.864 3.93502L139.792 3.71159L140.09 4.09793C140.146 4.51784 140.345 3.85358 139.993 4.44436C139.203 5.74725 138.176 6.90419 137.395 8.24997C135.522 11.4645 134.072 14.8619 131.736 17.7675C128.5 21.7749 124.397 24.9002 119.773 26.8064C118.241 27.44 117.304 23.9996 118.595 23.4737C123.025 21.636 127.003 18.7142 130.108 14.8817C132.578 11.8154 134.075 8.1707 136.095 4.79295C137.172 2.98671 140.161 -1.90803 141.741 2.39978C142.342 4.01924 142.254 5.79126 142.442 7.49316C142.67 9.52918 143.233 11.5872 143.57 13.6162C143.968 16.0196 144.342 18.4426 145.045 20.7849C145.953 23.8 147.334 26.5569 149.033 29.1758C149.947 30.5688 148.744 33.2628 147.467 31.3028Z" fill="#090000"/>
</g>
</svg>
